<svg xmlns="http://www.w3.org/2000/svg" viewBox="0 0 64 64">
  <defs>
    <linearGradient id="bg" x1="0" y1="0" x2="1" y2="1">
      <stop offset="0" stop-color="#7c3aed"/>
      <stop offset="0.55" stop-color="#2563eb"/>
      <stop offset="1" stop-color="#06b6d4"/>
    </linearGradient>
  </defs>
  <rect width="64" height="64" rx="16" fill="url(#bg)"/>
  <path d="M20 12h16l10 10v27a3 3 0 0 1-3 3H20a3 3 0 0 1-3-3V15a3 3 0 0 1 3-3z" fill="#fff"/>
  <path d="M36 12v8a2 2 0 0 0 2 2h8z" fill="#c4b5fd"/>
  <rect x="22" y="29" width="18" height="4" rx="2" fill="#7c3aed"/>
  <rect x="22" y="36" width="13" height="4" rx="2" fill="#2563eb"/>
  <rect x="22" y="43" width="8" height="4" rx="2" fill="#06b6d4"/>
  <circle cx="48" cy="48" r="7" fill="#ec4899" stroke="#fff" stroke-width="2.5"/>
  <path d="M45 48.2l2.1 2.1 4-4.2" fill="none" stroke="#fff" stroke-width="2.2" stroke-linecap="round" stroke-linejoin="round"/>
</svg>
